<svg width="24" height="23" viewBox="0 0 24 23" fill="none" xmlns="http://www.w3.org/2000/svg">
<path d="M10.7164 0.450014C5.34977 1.03335 1.0331 5.35001 0.449766 10.6C-0.133567 16.0833 3.01643 20.9833 7.79977 22.85C8.14977 22.9667 8.49977 22.7333 8.49977 22.2667V20.4C8.49977 20.4 8.0331 20.5167 7.44977 20.5167C5.81643 20.5167 5.11643 19.1167 4.99977 18.3C4.8831 17.8333 4.64977 17.4833 4.29977 17.1333C3.94977 17.0167 3.8331 17.0167 3.8331 16.9C3.8331 16.6667 4.1831 16.6667 4.29977 16.6667C4.99977 16.6667 5.5831 17.4833 5.81643 17.8333C6.39977 18.7667 7.09977 19 7.44977 19C7.91643 19 8.26643 18.8833 8.49977 18.7667C8.61643 17.95 8.96643 17.1333 9.66643 16.6667C6.9831 16.0833 4.99977 14.5667 4.99977 12C4.99977 10.7167 5.5831 9.43335 6.39977 8.50001C6.2831 8.26668 6.16643 7.68335 6.16643 6.86668C6.16643 6.40001 6.16643 5.70001 6.51643 5.00001C6.51643 5.00001 8.14977 5.00001 9.7831 6.51668C10.3664 6.28335 11.1831 6.16668 11.9998 6.16668C12.8164 6.16668 13.6331 6.28335 14.3331 6.51668C15.8498 5.00001 17.5998 5.00001 17.5998 5.00001C17.8331 5.70001 17.8331 6.40001 17.8331 6.86668C17.8331 7.80001 17.7164 8.26668 17.5998 8.50001C18.4164 9.43335 18.9998 10.6 18.9998 12C18.9998 14.5667 17.0164 16.0833 14.3331 16.6667C15.0331 17.25 15.4998 18.3 15.4998 19.35V22.3833C15.4998 22.7333 15.8498 23.0833 16.3164 22.9667C20.6331 21.2167 23.6664 17.0167 23.6664 12.1167C23.6664 5.11668 17.7164 -0.366653 10.7164 0.450014Z" fill="#269AC9"/>
</svg>
