<svg width="29" height="29" viewBox="0 0 29 29" fill="none" xmlns="http://www.w3.org/2000/svg">
<path d="M10.2288 9.88068V7.56924C10.2288 6.95621 10.4723 6.36829 10.9058 5.93482C11.3393 5.50134 11.9272 5.25781 12.5403 5.25781H17.1631C17.7761 5.25781 18.3641 5.50134 18.7975 5.93482C19.231 6.36829 19.4745 6.95621 19.4745 7.56924V9.88068M5.60596 16.815L9.24646 17.7245C12.9267 18.6444 16.7767 18.6444 20.4569 17.7245L24.0974 16.815" stroke="url(#paint0_linear_140_229)" stroke-width="2.31143" stroke-linecap="round"/>
<path d="M5.60596 12.1918C5.60596 11.5788 5.84948 10.9909 6.28296 10.5574C6.71644 10.1239 7.30436 9.88037 7.91739 9.88037H21.786C22.399 9.88037 22.9869 10.1239 23.4204 10.5574C23.8539 10.9909 24.0974 11.5788 24.0974 12.1918V21.4375C24.0974 22.0506 23.8539 22.6385 23.4204 23.072C22.9869 23.5054 22.399 23.749 21.786 23.749H7.91739C7.30436 23.749 6.71644 23.5054 6.28296 23.072C5.84948 22.6385 5.60596 22.0506 5.60596 21.4375V12.1918Z" stroke="url(#paint1_linear_140_229)" stroke-width="2.31143" stroke-linejoin="round"/>
<path d="M14.8491 15.6566C15.4874 15.6566 16.0048 15.1392 16.0048 14.5009C16.0048 13.8626 15.4874 13.3452 14.8491 13.3452C14.2108 13.3452 13.6934 13.8626 13.6934 14.5009C13.6934 15.1392 14.2108 15.6566 14.8491 15.6566Z" fill="url(#paint2_linear_140_229)"/>
<defs>
<linearGradient id="paint0_linear_140_229" x1="14.8517" y1="5.25781" x2="14.8517" y2="18.4144" gradientUnits="userSpaceOnUse">
<stop stop-color="#808DFF"/>
<stop offset="1" stop-color="#1E1E32"/>
</linearGradient>
<linearGradient id="paint1_linear_140_229" x1="14.8517" y1="9.88037" x2="14.8517" y2="23.749" gradientUnits="userSpaceOnUse">
<stop stop-color="#808DFF"/>
<stop offset="1" stop-color="#1E1E32"/>
</linearGradient>
<linearGradient id="paint2_linear_140_229" x1="14.8491" y1="13.3452" x2="14.8491" y2="15.6566" gradientUnits="userSpaceOnUse">
<stop stop-color="#808DFF"/>
<stop offset="1" stop-color="#1E1E32"/>
</linearGradient>
</defs>
</svg>
