<svg width="22" height="21" viewBox="0 0 22 21" fill="none" xmlns="http://www.w3.org/2000/svg">
<path d="M6.33203 0.24585C3.11328 0.24585 0.5 2.80514 0.5 5.95738V15.1004C0.5 18.2527 3.11328 20.812 6.33203 20.812H15.668C18.8867 20.812 21.5 18.2527 21.5 15.1004V5.95738C21.5 2.80514 18.8867 0.24585 15.668 0.24585H6.33203ZM18 2.5297C18.6445 2.5297 19.168 3.04232 19.168 3.67354C19.168 4.30475 18.6445 4.81737 18 4.81737C17.3555 4.81737 16.832 4.30475 16.832 3.67354C16.832 3.04232 17.3555 2.5297 18 2.5297ZM11 4.81737C14.2227 4.81737 16.832 7.37284 16.832 10.5289C16.832 13.685 14.2227 16.2404 11 16.2404C7.77734 16.2404 5.16797 13.685 5.16797 10.5289C5.16797 7.37284 7.77734 4.81737 11 4.81737ZM11 7.10122C9.06641 7.10122 7.5 8.63526 7.5 10.5289C7.5 12.4226 9.06641 13.9566 11 13.9566C12.9336 13.9566 14.5 12.4226 14.5 10.5289C14.5 8.63526 12.9336 7.10122 11 7.10122Z" fill="#269AC9"/>
</svg>
