<svg width="24" height="24" viewBox="0 0 24 24" fill="none" xmlns="http://www.w3.org/2000/svg">
<path d="M20.72 0H2.8C1.2544 0 0 1.2544 0 2.8V20.72C0 22.2656 1.2544 23.52 2.8 23.52H20.72C22.2656 23.52 23.52 22.2656 23.52 20.72V2.8C23.52 1.2544 22.2656 0 20.72 0ZM7.28 8.96V19.6H3.92V8.96H7.28ZM3.92 5.8632C3.92 5.0792 4.592 4.48 5.6 4.48C6.608 4.48 7.2408 5.0792 7.28 5.8632C7.28 6.6472 6.6528 7.28 5.6 7.28C4.592 7.28 3.92 6.6472 3.92 5.8632ZM19.6 19.6H16.24C16.24 19.6 16.24 14.4144 16.24 14C16.24 12.88 15.68 11.76 14.28 11.7376H14.2352C12.88 11.7376 12.32 12.8912 12.32 14C12.32 14.5096 12.32 19.6 12.32 19.6H8.96V8.96H12.32V10.3936C12.32 10.3936 13.4008 8.96 15.5736 8.96C17.7968 8.96 19.6 10.4888 19.6 13.5856V19.6Z" fill="#269AC9"/>
</svg>
