<svg width="8" height="10" viewBox="0 0 8 10" fill="none" xmlns="http://www.w3.org/2000/svg">
<path d="M1.692 9.096C1.444 9.096 1.252 9.028 1.116 8.892C0.988 8.748 0.924 8.552 0.924 8.304V1.32C0.924 1.064 0.992 0.872 1.128 0.744C1.264 0.608 1.456 0.539999 1.704 0.539999H4.596C5.524 0.539999 6.24 0.763999 6.744 1.212C7.248 1.652 7.5 2.272 7.5 3.072C7.5 3.592 7.384 4.04 7.152 4.416C6.928 4.792 6.6 5.08 6.168 5.28C5.736 5.48 5.212 5.58 4.596 5.58L4.704 5.4H5.1C5.428 5.4 5.712 5.48 5.952 5.64C6.2 5.8 6.416 6.052 6.6 6.396L7.5 8.064C7.596 8.232 7.64 8.396 7.632 8.556C7.624 8.716 7.564 8.848 7.452 8.952C7.34 9.048 7.176 9.096 6.96 9.096C6.744 9.096 6.568 9.052 6.432 8.964C6.296 8.868 6.176 8.724 6.072 8.532L4.86 6.3C4.716 6.028 4.544 5.848 4.344 5.76C4.152 5.664 3.904 5.616 3.6 5.616H2.46V8.304C2.46 8.552 2.396 8.748 2.268 8.892C2.14 9.028 1.948 9.096 1.692 9.096ZM2.46 4.476H4.332C4.884 4.476 5.3 4.364 5.58 4.14C5.868 3.908 6.012 3.564 6.012 3.108C6.012 2.66 5.868 2.324 5.58 2.1C5.3 1.868 4.884 1.752 4.332 1.752H2.46V4.476Z" fill="#444444"/>
</svg>
