<svg width="17" height="17" viewBox="0 0 17 17" fill="none" xmlns="http://www.w3.org/2000/svg">
<path d="M8.27929 0.325195C3.71092 0.325195 0.0107435 4.02537 0.0107435 8.59374C0.00974797 10.3294 0.555309 12.0214 1.57004 13.4296C2.58476 14.8377 4.01713 15.8907 5.66395 16.4389C6.07738 16.5109 6.23283 16.2628 6.23283 16.0454C6.23283 15.8494 6.22208 15.1987 6.22208 14.5058C4.14502 14.8886 3.60756 13.9997 3.44219 13.5342C3.34876 13.2961 2.94608 12.5626 2.59467 12.3659C2.30527 12.2112 1.89184 11.8284 2.58392 11.8185C3.23548 11.8077 3.70017 12.4179 3.85562 12.666C4.59979 13.9162 5.78798 13.5648 6.26342 13.3482C6.33618 12.8107 6.55282 12.4494 6.79095 12.2427C4.9512 12.0359 3.02876 11.3224 3.02876 8.15965C3.02876 7.26003 3.34876 6.51669 3.87629 5.93706C3.7936 5.73035 3.50421 4.88282 3.95898 3.74589C3.95898 3.74589 4.65105 3.52926 6.23283 4.59425C6.90594 4.40743 7.60141 4.3134 8.29996 4.31477C9.00279 4.31477 9.70562 4.40738 10.3671 4.59342C11.9489 3.51851 12.641 3.74672 12.641 3.74672C13.0957 4.88365 12.8063 5.73117 12.7236 5.93789C13.2503 6.51669 13.5712 7.25011 13.5712 8.15965C13.5712 11.3331 11.6388 12.0359 9.79823 12.2427C10.0984 12.5006 10.3572 12.9967 10.3572 13.7723C10.3572 14.8778 10.3464 15.7667 10.3464 16.0462C10.3464 16.2628 10.5019 16.5208 10.9153 16.4381C12.5565 15.8838 13.9825 14.8289 14.9928 13.4217C16.003 12.0145 16.5466 10.326 16.547 8.59374C16.547 4.02537 12.8468 0.325195 8.27847 0.325195H8.27929Z" fill="#0B0909"/>
</svg>
