<svg width="17" height="16" viewBox="0 0 17 16" fill="none" xmlns="http://www.w3.org/2000/svg">
<path d="M3.76689 1.80639C3.76667 2.24498 3.59223 2.66552 3.28195 2.9755C2.97166 3.28548 2.55095 3.45949 2.11236 3.45928C1.67376 3.45906 1.25322 3.28462 0.943248 2.97433C0.633273 2.66404 0.459254 2.24333 0.459473 1.80474C0.459692 1.36615 0.634132 0.945607 0.944418 0.635631C1.2547 0.325656 1.67542 0.151636 2.11401 0.151856C2.5526 0.152075 2.97314 0.326515 3.28312 0.636801C3.59309 0.947086 3.76711 1.3678 3.76689 1.80639ZM3.8165 4.68385H0.509084V15.0361H3.8165V4.68385ZM9.04223 4.68385H5.75134V15.0361H9.00915V9.60363C9.00915 6.57735 12.9533 6.29621 12.9533 9.60363V15.0361H16.2193V8.47911C16.2193 3.37742 10.3817 3.56759 9.00915 6.07296L9.04223 4.68385Z" fill="#0077B5"/>
</svg>
