<svg width="24" height="19" viewBox="0 0 24 19" fill="none" xmlns="http://www.w3.org/2000/svg">
<path d="M23.1797 2.88779C22.9102 1.90462 22.1211 1.12804 21.1172 0.867902C19.2969 0.389709 12 0.389709 12 0.389709C12 0.389709 4.70312 0.389709 2.88281 0.867902C1.87891 1.12804 1.08984 1.90462 0.820312 2.88779C0.332031 4.66667 0.332031 9.52893 0.332031 9.52893C0.332031 9.52893 0.332031 14.3912 0.820312 16.1701C1.08984 17.1532 1.87891 17.9298 2.88281 18.19C4.70312 18.6682 12 18.6682 12 18.6682C12 18.6682 19.2969 18.6682 21.1172 18.19C22.1211 17.9298 22.9102 17.1532 23.1797 16.1701C23.668 14.3912 23.668 9.52893 23.668 9.52893C23.668 9.52893 23.668 4.66667 23.1797 2.88779ZM9.66797 13.4884V5.56949L16.668 9.52893L9.66797 13.4884Z" fill="#269AC9"/>
</svg>
